<mxfile host="app.diagrams.net" modified="2023-09-25T08:26:25.754Z" agent="Mozilla/5.0 (Windows NT 10.0; Win64; x64) AppleWebKit/537.36 (KHTML, like Gecko) Chrome/117.0.0.0 Safari/537.36" version="21.8.2" etag="38XVdcUSixVj5igQq5Gk" type="github">
  <diagram name="第 1 页" id="I-se4UYGKbPPRXtc1QQ1">
    <mxGraphModel>
      <root>
        <mxCell id="0" />
        <mxCell id="1" parent="0" />
      </root>
    </mxGraphModel>
  </diagram>
</mxfile>
